<?xml version="1.0" encoding="UTF-8"?>
<svg id="Capa_1" data-name="Capa 1" xmlns="http://www.w3.org/2000/svg" viewBox="0 0 500 500">
  <defs>
    <style>
      .cls-1 {
        fill: #fff;
      }

      .cls-2 {
        fill: #e5242c;
      }
    </style>
  </defs>
  <rect class="cls-2" width="500" height="500"/>
  <g>
    <path class="cls-1" d="M371.2,266.21h-16.8l-7.72-39.5-12.25,1.37,5.44,3.86c5.44,6.01,7.05,14.32,5.36,22.15l-29.55,12.04c-10.43-6.24-16.62-18.99-9.59-30.3,5.52-8.88,21.12-11.67,30.83-12.75,5.16-.57,20.34-.2,23.56-3.68,4.11-4.45-.65-8.18-5.39-8.59-15.49-1.35-33.09,6.25-47,12.27v-24.97c13.02.63,26.81-.84,39.74-.02,9.29.59,23.36,4.55,23.36,16.13v51.98Z"/>
    <path class="cls-1" d="M191.89,198.11v24.97c-10.12-4.31-20.37-8.6-31.24-10.75-4.75-.94-19.23-3.92-20.43,2.92-.89,5.08,6.09,6.53,9.8,7.25,13.22,2.58,35.78,1.16,44.05,14.05,6.92,10.79.9,32-14.46,29.44l-31.3-13.41-2.73,13.62h-16.8v-32.68c7.08,5.11,14.11,11.68,22.08,15.37,6.08,2.82,13.04,5.21,17.61-1.33,7.51-10.76-8.36-17.6-16.19-20.07-8.73-2.74-25.15-3.87-22.94-16.79,1.45-8.46,13.47-11.24,20.6-12.08,13.57-1.59,28.22.13,41.93-.51Z"/>
    <path class="cls-1" d="M232.66,198.25c24.06-2.08,44.69,19.16,37.89,43.33-8.31,29.54-51.37,33.47-66.18,6.93-12.53-22.47,3.66-48.13,28.29-50.26ZM227.3,203.11c-12.99,4.74-19.18,10.91-12.92,24.95,5.83,13.08,24.23,27.5,39.04,26.36,9.86-.76,10.03-11.03,6.95-18.34-2.28-5.42-10.7-15.27-16.96-15.27h-15.43l-.68-.68v-17.02Z"/>
    <path class="cls-1" d="M298.57,198.11v46.98c0,4-2.84,11.58-4.76,15.22-7.81,14.81-21.3,21.51-37.92,21.32v-1.81c15.21.15,19.65-15.97,20.9-28.35l-.02-53.36h21.79Z"/>
    <path class="cls-1" d="M75.69,233.52c2.95,1.34,5.51,3.28,8.64,4.29,5.74,1.87,10.08,1.85,15.85,0l9.1-4.52c-2.64,11.6-14.49,22.34-25.88,13.17-3.91-3.15-6.89-7.95-7.71-12.94Z"/>
    <path class="cls-1" d="M424.31,233.52c-.82,4.99-3.8,9.79-7.71,12.94-11.37,9.15-23.27-1.52-25.88-13.17l8.06,4.2c6.5,2.44,12.08,2.27,18.51-.34,2.51-1.02,4.48-2.78,7.02-3.64Z"/>
    <path class="cls-1" d="M236.38,294.8l1.81,7.26-2.66-.06c-.63-.41-3.18-12.45-3.94-14.46-.14-.37-.14-1.29-.88-.91-1.14.59-3.82,13.25-4.34,15.41l-2.71.02,4.13-16.3,5.91.23,2.04,7.02,47.84-.03c-.46-8.37,13.05-10.29,15.44-2.73-3.63,1.39-3.16-2.23-6.7-2.64-8.4-.96-8.44,14.54,1.27,11.95,2.51-.67,2.65-4.21,5.43-1.37-3.99,6.35-15.28,4.9-15.43-3.4h-47.21Z"/>
    <path class="cls-1" d="M181.45,285.73h5.9s2.04,10.9,2.04,10.9l1.36,4.08,3.47-14.92,5.39-.06v16.34h-2.27v-14.75c0-.09-.76-.82-.9-.68l-3.2,15.41-4.68.04c-.84-.2-2.9-12.05-3.46-13.89-.18-.61-.04-1.41-.93-1.57v15.43h-2.72v-16.34Z"/>
    <path class="cls-1" d="M324.9,285.73l5.88.02c1.23,4.43,2.3,9.73,3.99,13.96.28.69-.27,1.22,1.02,1v-14.98h2.72v16.34l-5.86-.05-5.04-15.39v15.43h-2.72v-16.34Z"/>
    <path class="cls-1" d="M168.17,285.83c4.36-.74,8.93.16,10.45,4.76,2.67,8.07-3.99,13.71-11.69,10.78-6.79-2.58-6.01-14.32,1.24-15.54ZM170.45,287.65c-6.88.38-7.03,10.99-1.37,12.04,9.97,1.84,9.45-12.48,1.37-12.04Z"/>
    <path class="cls-1" d="M208.69,302.07v-16.34h8.85c.83,0,3.73,2.6,4.24,3.47,2.1,3.6,1.08,10-2.86,11.98-.4.2-2.06.89-2.29.89h-7.94ZM211.41,300.25c11.53,2.12,11.83-15.08,0-12.71v12.71Z"/>
    <polygon class="cls-1" points="303.57 285.73 303.57 292.99 313.1 292.99 313.1 285.73 315.82 285.73 315.82 302.07 313.1 302.07 313.1 294.8 303.57 294.8 303.57 302.07 300.84 302.07 300.84 285.73 303.57 285.73"/>
    <path class="cls-1" d="M160.57,290.26l-2.43.49c-2.41-4.95-9.3-3.72-10.17,1.66-.81,5.01,2.12,8.46,7.29,7.28,1.93-.44,2.36-2.65,3.22-2.62l2.1.68c-1.77,5.41-11.03,5.7-14.01,1.28-3.09-4.59-1.28-12.44,4.73-13.28,3.79-.53,8.42.26,9.27,4.49Z"/>
    <path class="cls-1" d="M350.26,285.79l4.6,16.28-2.77-.26-4.26-15.18c-.76-.1-.92.56-1.16,1.11-1.72,3.87-2.31,10.12-3.62,14.31l-2.71.02,4.11-16.32,5.82.04Z"/>
    <rect class="cls-1" x="202.79" y="285.73" width="2.72" height="16.34"/>
    <rect class="cls-1" x="319" y="285.73" width="2.72" height="16.34"/>
  </g>
</svg>